<svg id="Layer_1" data-name="Layer 1" xmlns="http://www.w3.org/2000/svg" viewBox="0 0 418.81 130.38">
  <defs>
    <linearGradient id="grad1" x1="0%" y1="0%" x2="0%" y2="100%">
      <stop offset="0%" style="stop-color:#F7F7FE;stop-opacity:1" />
      <stop offset="100%" style="stop-color:#F7F7FE;stop-opacity:1" />
    </linearGradient>

    <linearGradient id="grad2" x1="0%" y1="0%" x2="0%" y2="100%">
      <stop offset="0%" style="stop-color:#fafafa;stop-opacity:1" />
      <stop offset="100%" style="stop-color:#fafafa;stop-opacity:1" />
    </linearGradient>

    <style>.cls-1{fill:url(#grad2);}.cls-1,.cls-3{stroke-miterlimit:10;}.cls-3{fill:url(#grad1);}
    </style>

  </defs>

  <title>squiggles</title>
  <path class="cls-1" d="M3.65,45.82C8.52,42.24,15.1,42.31,28.1,41c23.38-2.45,39.22,1.81,54.45,4.13,31.79,4.83,30.67-3.44,83.35-2.48,45.21.82,45,6.89,75.57,4.13,25.6-2.31,33.28-7.24,56.67-5.78,18.61,1.16,22.95,4.85,32.81,6.9a92.19,92.19,0,0,0,12.76,1.36c22.79.83,47-14.66,58.79-7.85,6.07,3.49,3.12,9.56,6,55.41.67,10.62,1.46,20.37,0,34.17-2.85,27-10.36,32.24-13.68,32.72a52,52,0,0,0-7.36,1.08c-3.7.84-5.08,1.79-12.64,2.57-31.92,3.3-43.24-9.87-74.45-6.61-8.23.86-6,1.63-22.23,4.13-15.37,2.38-29,4.48-44.45,4.13-27.14-.6-32.58-8.12-56.68-5.78-10.62,1-9.53,2.49-21.11,4.13-29.69,4.2-37.16-5.33-67.79-4.95-26.67.32-32,7.69-62.23,5.78-12.21-.78-18.32-1-22.23-3C-7.17,159.6-4.4,143.5-4.5,97.7-4.57,64.66-6,52.94,3.65,45.82Z" transform="translate(8.99 -39.12)"/>

  <path class="cls-3" d="M400.43,158.87c-2.63,1.26-9.81,3.15-16.66,4.11-13.87,2-21.15.75-52.72-3.78-30.78-4.41-29.7,3.15-80.71,2.27-43.77-.75-43.54-6.3-73.17-3.78-24.79,2.12-32.23,6.62-54.88,5.29-24.14-1.42-23.47-7-44.11-7.55-23-.62-42.87,13.84-64.57,8.31-3.16-.81-10.48-2.68-16.11-8.5-10.39-10.74-4.4-23.93-3-50.92,1.87-35.95-6.78-50.47,3-56.37,6.67-4,11.93,2,31.18,2.83,23.59,1,28.05-7.48,50.82-8.29,23.19-.81,22.25,7.88,49,9.1,29.81,1.35,30.77-9.45,56.2-5.66,10,1.5,21.77,5,41,5.51,6,.17,10.43,0,13.84-.22,14.27-1,23.35-3.83,28.92-5.09,23-5.2,26.32,8,57.17,5.84,12.67-.87,21.8-3.39,40.72-5.12a137.64,137.64,0,0,1,19.54-.16c7.21.41,10.82.56,12.51,1.26,10.21,4.25,6.39,24,7.06,56.37C406.13,134.7,410.25,154.21,400.43,158.87Z" transform="translate(8.99 -39.12)"/>
</svg>