<svg id="Layer_1" data-name="Layer 1" xmlns="http://www.w3.org/2000/svg" viewBox="0 0 206 189"><defs><style>.cls-1{fill:#fff;stroke:#000;}.cls-1,.cls-2,.cls-3{stroke-miterlimit:10;}.cls-2{fill:#fafafa;stroke:#fafafa;}.cls-3{fill:#f5f5f8;stroke:#f5f5f8;}</style></defs><title>user-bubble</title><path class="cls-2" d="M399.5,45.5c-27,0-53-10-53-10-54-27-97-15-97-15-43,10-62,53.5-52,95,3.5,14.5,12,38,31,56s40,20,40,20c46,9,90-11,90-11a187.6,187.6,0,0,0,41-31Z" transform="translate(-194 -5)"/><path class="cls-3" d="M399.5,20.5c-37,3-52-3-52-3-35-14-79-12-79-12-28,3-47,14.3-56.5,26-17.1,20.9-20.9,50.4-14.5,77,3.5,14.5,12,38,31,56s40,20,40,20c46,9,90-11,90-11a187.6,187.6,0,0,0,41-31Z" transform="translate(-194 -2)"/></svg>